<svg xmlns="http://www.w3.org/2000/svg" xmlns:xlink="http://www.w3.org/1999/xlink" width="500" zoomAndPan="magnify" viewBox="0 0 375 374.999991" height="500" preserveAspectRatio="xMidYMid meet" version="1.0"><defs><clipPath id="d7ad5b71b6"><path d="M 27.375 5.28125 L 347.625 5.28125 L 347.625 369.78125 L 27.375 369.78125 Z M 27.375 5.28125 " clip-rule="nonzero"/></clipPath></defs><g clip-path="url(#d7ad5b71b6)"><path fill="#c8c8c8" d="M 190.082031 236.679688 L 190.082031 266.328125 C 190.082031 267.167969 190.5 267.886719 191.226562 268.308594 L 214.429688 281.703125 C 215.957031 282.585938 217.855469 281.488281 217.855469 279.722656 L 217.855469 240.136719 L 313.628906 184.839844 L 343.820312 202.269531 C 346.242188 203.667969 347.628906 206.070312 347.628906 208.867188 L 347.628906 310.660156 C 347.628906 313.457031 346.242188 315.859375 343.820312 317.257812 L 255.664062 368.152344 C 253.242188 369.550781 250.46875 369.550781 248.046875 368.152344 L 159.890625 317.257812 C 157.46875 315.859375 156.082031 313.457031 156.082031 310.660156 L 156.082031 218.542969 L 183.285156 234.25 C 185.4375 235.492188 187.738281 236.300781 190.082031 236.679688 Z M 196.996094 6.914062 C 194.574219 5.515625 191.800781 5.515625 189.378906 6.914062 L 101.222656 57.808594 C 98.800781 59.207031 97.414062 61.609375 97.414062 64.40625 L 97.414062 166.199219 C 97.414062 168.996094 98.800781 171.398438 101.222656 172.796875 L 189.378906 223.695312 C 191.800781 225.09375 194.574219 225.09375 196.996094 223.695312 L 285.152344 172.796875 C 287.574219 171.398438 288.960938 168.996094 288.960938 166.199219 L 288.960938 64.40625 C 288.960938 61.609375 287.574219 59.207031 285.152344 57.808594 L 254.960938 40.378906 L 159.1875 95.675781 L 159.1875 135.265625 C 159.1875 137.027344 157.289062 138.125 155.761719 137.242188 L 132.554688 123.847656 C 131.828125 123.425781 131.414062 122.707031 131.414062 121.867188 L 131.414062 79.640625 L 227.1875 24.34375 Z M 85.226562 136 L 61.359375 149.78125 L 61.359375 192.007812 C 61.359375 192.847656 61.773438 193.570312 62.5 193.988281 L 85.707031 207.386719 C 87.234375 208.269531 89.132812 207.171875 89.132812 205.40625 L 89.132812 178.054688 C 90.714844 180.164062 92.734375 181.96875 95.128906 183.351562 L 143.894531 211.507812 L 143.894531 284.046875 L 126.941406 293.835938 C 124.519531 295.234375 121.746094 295.234375 119.324219 293.835938 L 31.167969 242.941406 C 28.746094 241.542969 27.359375 239.140625 27.359375 236.34375 L 27.359375 134.550781 C 27.359375 131.753906 28.746094 129.351562 31.167969 127.953125 L 85.226562 96.742188 Z M 85.226562 136 " fill-opacity="1" fill-rule="evenodd"/></g><path stroke-linecap="butt" transform="matrix(0.75, 0, 0, 0.75, 142.530053, 170.969931)" fill="none" stroke-linejoin="miter" d="M 0.00159635 1.998425 L 160.001607 1.998425 " stroke="#c8c8c8" stroke-width="4" stroke-opacity="1" stroke-miterlimit="4"/></svg>