<svg xmlns="http://www.w3.org/2000/svg" version="1.1" xmlns:xlink="http://www.w3.org/1999/xlink" width="512" height="512" x="0" y="0" viewBox="0 0 512 512" style="enable-background:new 0 0 512 512" xml:space="preserve" class="">
                  <g><path fill="#069c95" d="M512 256c0 3-.05 6-.16 8.95s-.24 5.71-.44 8.54a256.22 256.22 0 0 1-179.9 227.19c-.85.27-1.7.53-2.56.78A256 256 0 0 1 256 512C114.62 512 0 397.38 0 256S114.62 0 256 0c120.44 0 221.46 83.18 248.74 195.23A256.24 256.24 0 0 1 512 256z" opacity="1" data-original="#ff5722" class=""></path><path fill="#006b66" d="M511.4 273.49a256.22 256.22 0 0 1-179.9 227.19L143.11 398.19l49.41-284.38 116.62 58.4z" opacity="1" data-original="#d84315" class=""></path><path fill="#006b66" d="M511.4 273.49A255.64 255.64 0 0 1 408 462l-97.7-63.81L232.09 256l77-83.79 53.7-58.4 141.9 81.42A256.24 256.24 0 0 1 512 256c0 3-.05 6-.16 8.95s-.24 5.71-.44 8.54z" opacity="1" data-original="#d84315" class=""></path><path fill="#fafafa" d="m224.75 275.34-32.23 34.18v88.67h-49.41V113.81h49.41v133.4l27.35-33.79 83.2-99.61h59.77l-105.67 126 111.72 158.4H310.3z" opacity="1" data-original="#fafafa" class=""></path></g></svg>